<svg width="21" height="21" viewBox="0 0 21 21" fill="none" xmlns="http://www.w3.org/2000/svg">
<path d="M15.0582 7.44379C15.1633 7.54861 15.2468 7.67317 15.3038 7.81032C15.3607 7.94747 15.39 8.09452 15.39 8.24302C15.39 8.39153 15.3607 8.53857 15.3038 8.67572C15.2468 8.81287 15.1633 8.93743 15.0582 9.04226L9.7926 14.3078C9.68778 14.413 9.56322 14.4965 9.42607 14.5534C9.28892 14.6104 9.14187 14.6397 8.99337 14.6397C8.84486 14.6397 8.69782 14.6104 8.56067 14.5534C8.42352 14.4965 8.29896 14.413 8.19413 14.3078L5.93747 12.0511C5.83251 11.9462 5.74925 11.8216 5.69245 11.6845C5.63565 11.5473 5.60641 11.4003 5.60641 11.2519C5.60641 11.1035 5.63565 10.9565 5.69245 10.8194C5.74925 10.6822 5.83251 10.5576 5.93747 10.4527C6.04242 10.3477 6.16703 10.2645 6.30416 10.2077C6.44129 10.1509 6.58827 10.1216 6.7367 10.1216C6.88513 10.1216 7.03211 10.1509 7.16924 10.2077C7.30638 10.2645 7.43098 10.3477 7.53594 10.4527L8.99431 11.9092L13.4616 7.44097C13.5665 7.33624 13.6911 7.25324 13.8282 7.1967C13.9653 7.14015 14.1122 7.11119 14.2604 7.11145C14.4087 7.11171 14.5555 7.1412 14.6924 7.19822C14.8293 7.25525 14.9536 7.33869 15.0582 7.44379ZM20.6537 10.4987C20.6537 12.5072 20.0582 14.4706 18.9423 16.1406C17.8265 17.8105 16.2405 19.1121 14.3849 19.8807C12.5293 20.6494 10.4875 20.8505 8.51761 20.4586C6.54773 20.0668 4.73829 19.0996 3.31808 17.6794C1.89788 16.2592 0.930713 14.4498 0.53888 12.4799C0.147047 10.51 0.34815 8.46818 1.11676 6.6126C1.88537 4.75702 3.18696 3.17102 4.85694 2.05518C6.52692 0.93933 8.49028 0.34375 10.4988 0.34375C13.1911 0.346737 15.7723 1.41759 17.6761 3.32138C19.5799 5.22516 20.6508 7.80639 20.6537 10.4987ZM18.3971 10.4987C18.3971 8.93661 17.9339 7.40954 17.066 6.11067C16.1981 4.8118 14.9645 3.79945 13.5213 3.20164C12.0781 2.60383 10.49 2.44742 8.95786 2.75218C7.42574 3.05694 6.01839 3.80918 4.91379 4.91378C3.80919 6.01839 3.05694 7.42573 2.75219 8.95786C2.44743 10.49 2.60384 12.0781 3.20165 13.5213C3.79945 14.9645 4.8118 16.1981 6.11067 17.066C7.40955 17.9338 8.93661 18.3971 10.4988 18.3971C12.5928 18.3948 14.6005 17.562 16.0812 16.0812C17.562 14.6005 18.3948 12.5928 18.3971 10.4987Z" fill="#0009FF"/>
</svg>
